<?xml version="1.0" standalone="no"?><!-- Generator: Gravit.io --><svg xmlns="http://www.w3.org/2000/svg" xmlns:xlink="http://www.w3.org/1999/xlink" style="isolation:isolate" viewBox="0 0 226.124 66.462" width="226.124" height="66.462"><defs><clipPath id="_clipPath_S6sFNDU1PKByxQOj0pl8EBxPvdoS8VcU"><rect width="226.124" height="66.462"/></clipPath></defs><g clip-path="url(#_clipPath_S6sFNDU1PKByxQOj0pl8EBxPvdoS8VcU)"><g id="Group"><g id="Group"><g id="Brand"><g id="Logotype"><path d=" M 81.231 6.606 L 84.074 6.606 L 84.074 48.857 L 84.074 48.857 Q 84.004 51.489 85.425 52.874 L 85.425 52.874 L 85.425 52.874 Q 86.85 54.262 89.479 54.262 L 89.479 54.262 L 93.393 54.262 L 93.748 56.326 L 93.748 56.326 Q 92.042 56.895 88.77 56.895 L 88.77 56.895 L 88.77 56.895 Q 85.285 56.895 83.258 54.901 L 83.258 54.901 L 83.258 54.901 Q 81.231 52.911 81.231 49.281 L 81.231 49.281 L 81.231 6.606 Z  M 113.239 40.678 L 113.239 40.678 L 94.959 40.678 L 94.959 40.678 Q 95.243 48.502 98.23 51.597 L 98.23 51.597 L 98.23 51.597 Q 101.217 54.691 107.904 54.691 L 107.904 54.691 L 107.904 54.691 Q 113.808 54.691 119.638 53.834 L 119.638 53.834 L 119.996 55.828 L 119.996 55.828 Q 115.728 57.249 107.546 57.249 L 107.546 57.249 L 107.546 57.249 Q 99.227 57.249 95.597 53.088 L 95.597 53.088 L 95.597 53.088 Q 91.972 48.927 91.972 39.113 L 91.972 39.113 L 91.972 39.113 Q 91.972 29.295 95.42 25.278 L 95.42 25.278 L 95.42 25.278 Q 98.869 21.257 106.977 21.257 L 106.977 21.257 L 106.977 21.257 Q 120.565 21.257 120.779 31.359 L 120.779 31.359 L 120.779 31.359 Q 120.919 36.052 119.106 38.363 L 119.106 38.363 L 119.106 38.363 Q 117.293 40.678 113.239 40.678 Z  M 94.959 38.33 L 94.959 38.33 L 112.811 38.33 L 112.811 38.33 Q 118.076 38.33 117.862 31.499 L 117.862 31.499 L 117.862 31.499 Q 117.792 27.519 115.192 25.669 L 115.192 25.669 L 115.192 25.669 Q 112.597 23.819 107.121 23.819 L 107.121 23.819 L 107.121 23.819 Q 100.434 23.819 97.732 27.021 L 97.732 27.021 L 97.732 27.021 Q 95.029 30.222 94.959 38.33 Z  M 124.05 24.886 L 124.05 24.886 L 123.766 22.752 L 123.766 22.752 Q 134.577 21.257 140.123 21.257 L 140.123 21.257 L 140.123 21.257 Q 150.225 21.257 150.225 31.215 L 150.225 31.215 L 150.225 56.397 L 148.091 56.397 L 147.592 50.064 L 147.592 50.064 Q 144.96 52.627 140.514 54.761 L 140.514 54.761 L 140.514 54.761 Q 136.069 56.895 131.66 56.895 L 131.66 56.895 L 131.66 56.895 Q 127.252 56.895 124.796 54.584 L 124.796 54.584 L 124.796 54.584 Q 122.341 52.272 122.341 48.004 L 122.341 48.004 L 122.341 43.736 L 122.341 43.736 Q 122.341 39.822 124.582 37.688 L 124.582 37.688 L 124.582 37.688 Q 126.823 35.553 130.877 35.553 L 130.877 35.553 L 147.378 35.553 L 147.378 31.215 L 147.378 31.215 Q 147.378 27.659 145.672 25.739 L 145.672 25.739 L 145.672 25.739 Q 143.967 23.819 139.768 23.819 L 139.768 23.819 L 139.768 23.819 Q 133.65 23.819 124.05 24.886 Z  M 125.258 43.95 L 125.258 43.95 L 125.258 47.79 L 125.258 47.79 Q 125.258 54.192 131.944 54.262 L 131.944 54.262 L 131.944 54.262 Q 135.5 54.333 139.912 52.449 L 139.912 52.449 L 139.912 52.449 Q 144.321 50.563 147.378 47.72 L 147.378 47.72 L 147.378 37.832 L 131.162 38.046 L 131.162 38.046 Q 125.258 38.116 125.258 43.95 Z  M 175.831 5.893 L 175.691 8.027 L 168.007 8.027 L 168.007 8.027 Q 164.023 8.027 162.354 9.663 L 162.354 9.663 L 162.354 9.663 Q 160.682 11.299 160.682 15.353 L 160.682 15.353 L 160.682 22.113 L 172.914 22.113 L 172.914 24.532 L 160.682 24.532 L 160.682 56.397 L 157.835 56.397 L 157.835 24.532 L 151.647 24.532 L 151.647 22.468 L 157.835 22.184 L 157.835 15.213 L 157.835 15.213 Q 157.835 10.305 160.006 7.92 L 160.006 7.92 L 160.006 7.92 Q 162.173 5.539 167.084 5.539 L 167.084 5.539 L 167.084 5.539 Q 172.704 5.539 175.831 5.893 L 175.831 5.893 Z " fill-rule="evenodd" fill="rgb(73,101,115)"/><path d=" M 176.581 26.703 L 176.581 26.703 L 176.23 22.97 L 176.23 22.97 Q 181.366 22.11 186.1 22.11 L 186.1 22.11 L 186.1 22.11 Q 191.834 22.11 194.326 23.786 L 194.326 23.786 L 194.326 23.786 Q 196.818 25.459 196.818 29.764 L 196.818 29.764 L 196.818 29.764 Q 196.818 37.178 191.782 38.086 L 191.782 38.086 L 191.782 38.278 L 191.782 38.278 Q 194.972 38.806 196.294 40.837 L 196.294 40.837 L 196.294 40.837 Q 197.616 42.872 197.716 46.553 L 197.716 46.553 L 197.716 46.553 Q 197.815 51.67 195.271 54.015 L 195.271 54.015 L 195.271 54.015 Q 192.731 56.36 186.698 56.36 L 186.698 56.36 L 186.698 56.36 Q 181.964 56.36 175.684 55.499 L 175.684 55.499 L 175.983 51.622 L 175.983 51.622 Q 181.813 52.102 185.453 52.102 L 185.453 52.102 L 185.453 52.102 Q 189.489 52.102 191.136 50.762 L 191.136 50.762 L 191.136 50.762 Q 192.779 49.425 192.779 46.029 L 192.779 46.029 L 192.779 46.029 Q 192.779 43.112 191.435 41.697 L 191.435 41.697 L 191.435 41.697 Q 190.087 40.287 186.299 40.287 L 186.299 40.287 L 179.97 40.287 L 179.97 36.558 L 186.299 36.558 L 186.299 36.558 Q 189.84 36.51 190.936 35.073 L 190.936 35.073 L 190.936 35.073 Q 192.033 33.637 192.033 30.912 L 192.033 30.912 L 192.033 30.912 Q 191.981 27.995 190.637 27.157 L 190.637 27.157 L 190.637 27.157 Q 189.29 26.319 185.354 26.319 L 185.354 26.319 L 185.354 26.319 Q 181.266 26.319 176.581 26.703 Z  M 200.108 55.739 L 200.108 55.739 L 200.108 22.734 L 200.108 22.734 Q 206.636 22.302 212.518 22.302 L 212.518 22.302 L 212.518 22.302 Q 220.095 22.302 223.111 25.987 L 223.111 25.987 L 223.111 25.987 Q 226.124 29.668 226.124 39.235 L 226.124 39.235 L 226.124 39.235 Q 226.124 48.801 223.111 52.486 L 223.111 52.486 L 223.111 52.486 Q 220.095 56.168 212.518 56.168 L 212.518 56.168 L 212.518 56.168 Q 206.636 56.168 200.108 55.739 Z  M 205.089 26.511 L 205.089 26.511 L 205.089 51.862 L 205.089 51.862 Q 208.279 52.006 212.518 52.006 L 212.518 52.006 L 212.518 52.006 Q 217.204 52.006 219.024 49.233 L 219.024 49.233 L 219.024 49.233 Q 220.84 46.457 220.84 39.235 L 220.84 39.235 L 220.84 39.235 Q 220.84 32.013 219.024 29.24 L 219.024 29.24 L 219.024 29.24 Q 217.204 26.463 212.518 26.463 L 212.518 26.463 L 212.518 26.463 Q 211.023 26.463 208.556 26.489 L 208.556 26.489 L 208.556 26.489 Q 206.086 26.511 205.089 26.511 Z " fill-rule="evenodd" fill="rgb(73,101,115)"/></g></g></g><g id="Logo"><path d=" M 8.64 0 L 57.821 0 C 62.588 0 66.461 3.873 66.461 8.64 L 66.461 57.822 C 66.461 62.589 62.588 66.462 57.821 66.462 L 8.64 66.462 C 3.869 66.462 0 62.589 0 57.822 L 0 8.64 C 0 3.873 3.869 0 8.64 0 Z " fill="rgb(73,101,115)"/><path d=" M 40.12 16.863 C 40.098 16.069 39.352 15.168 38.603 15.504 L 14.983 26.079 C 14.234 26.411 13.732 26.806 13.554 27.585 L 9.253 46.509 C 9.076 47.288 9.954 47.908 10.77 47.867 L 40.12 16.863 Z " fill="rgb(255,255,255)"/><path d=" M 54.144 9.305 C 55.591 9.028 57.511 9.552 57.194 10.56 L 47.232 42.417 C 46.918 43.425 46.401 44.168 45.061 44.681 L 12.517 57.072 C 11.176 57.582 9.711 56.788 9.471 55.813 L 54.144 9.305 Z " fill="rgb(255,255,255)"/></g></g></g></svg>